<?xml version="1.0" encoding="UTF-8" standalone="no" ?>
<!DOCTYPE svg PUBLIC "-//W3C//DTD SVG 1.1//EN" "http://www.w3.org/Graphics/SVG/1.1/DTD/svg11.dtd">
<svg xmlns="http://www.w3.org/2000/svg" xmlns:xlink="http://www.w3.org/1999/xlink" version="1.1" width="428pt" height="585pt" viewBox="0 0 427.99999 584.99998" xml:space="preserve">
<desc>Created with Fabric.js 5.3.0</desc>
<defs>
</defs>
<g transform="matrix(1 0 0 1 213.999995 292.5146456641)" id="0NDVhf7pMECuxxOhJxAUi"  >
<g style=""   >
		<g transform="matrix(1.3333333333 0 0 1.3333333333 0 0)" id="FcPV47hMpL5qUPLk-az0U"  >
<path style="stroke: none; stroke-width: 1; stroke-dasharray: none; stroke-linecap: butt; stroke-dashoffset: 0; stroke-linejoin: miter; stroke-miterlimit: 4; fill: rgb(14,14,14); fill-rule: nonzero; opacity: 1;"  transform=" translate(-202.5552156671, -365.314693836)" d="M 314.98 146.77 C 315.9 148.05 316.86 149.17 317.21 150.75 C 318.6 157.26 318.5 163.54 318.73 170.15 L 319.2 170.78 C 320.54 188.71 330.04 204.42 338.12 220 C 339.34 222.06 337.25 224.41 336.13 226.07 C 331.06 232.21 327.76 239.1 324.19 246.16 C 321.51 251.51 320.16 257.2 318.72 262.96 C 318.47 270.3 318.64 277.66 318.75 285 C 319.69 295.61 319.3 306.33 319.58 316.99 C 319.78 322.63 319.31 328.43 320.19 334 C 320.47 343.33 320.38 352.67 320.52 362 C 320.96 431.66 320.66 501.33 320.83 571 C 320.84 574.27 320.74 577.53 320.38 580.78 C 319.6 581.76 318.75 582.67 317.85 583.51 C 312.92 584.15 307.91 583.89 303.04 582.9 C 283.68 579.61 264.3 576.3 244.91 573.18 C 240.95 572.38 236.95 571.73 232.95 571.16 C 230.96 570.73 228.95 570.45 226.95 570.14 C 213.3 567.75 199.63 565.4 185.96 563.17 C 183.67 562.67 181.35 562.35 179.06 561.84 C 156.27 557.95 133.49 553.93 110.86 549.14 C 98.89 546.64 87.11 543.46 75.19 540.73 C 72.16 540.07 69.41 539.09 66.62 537.72 C 74.46 536.4 83.08 538.35 91.09 538.61 C 99.36 539.48 107.72 539.95 115.95 541.15 C 124.11 541.76 132.1 543.63 140.26 543.77 C 140.37 540.51 140.51 537.25 140.76 534 C 142.64 522.91 145.38 512.07 149.69 501.66 C 159.89 476.56 177.21 454.23 198.01 437 C 220.22 418.49 246.73 405.36 274.88 398.79 C 286.04 396.34 297.37 394.89 308.79 394.46 C 309.09 391.98 309.28 389.5 309.28 387 C 309.35 371.34 309.5 355.66 309.71 340 C 310.81 327.73 310.34 315.33 310.7 303.01 C 311.85 289.07 311.33 274.98 311.76 260.99 C 312.07 255.05 311.63 249.2 312.42 243.28 C 312.67 230.2 312.3 217.05 313.24 204 C 313.33 189.66 313.43 175.34 313.51 161 C 313.64 156.07 313.27 151.5 314.98 146.77 Z" stroke-linecap="round" />
</g>
		<g transform="matrix(1.3333333333 0 0 1.3333333333 32.6330457772 146.2533866702)" id="VWYn2OEv5-qHV2ecDj5rC"  >
<path style="stroke: none; stroke-width: 1; stroke-dasharray: none; stroke-linecap: butt; stroke-dashoffset: 0; stroke-linejoin: miter; stroke-miterlimit: 4; fill: rgb(106,168,79); fill-rule: nonzero; opacity: 1;"  transform=" translate(-227.03, -475.0047338386)" d="M 308.66 400.32 C 308.66 413.09 308.55 425.86 308.52 438.62 C 272.75 445.27 240.04 463.76 214.75 489.75 C 198.81 506.27 185.05 527.01 180.12 549.69 C 168.48 548.87 156.99 546.41 145.4 545.05 C 147.39 510.17 164.58 477.49 188.95 452.96 C 213.45 428.1 245.49 410.71 279.63 403.54 C 289.19 401.53 298.88 400.29 308.66 400.32 Z" stroke-linecap="round" />
</g>
		<g transform="matrix(1.3333333333 0 0 1.3333333333 59.0528174131 177.0804082187)" id="0TMZgISKk83eNTEf8G1Bx"  >
<path style="stroke: none; stroke-width: 1; stroke-dasharray: none; stroke-linecap: butt; stroke-dashoffset: 0; stroke-linejoin: miter; stroke-miterlimit: 4; fill: rgb(255,255,255); fill-rule: nonzero; opacity: 1;"  transform=" translate(-246.8448287269, -498.125)" d="M 308.48 444.47 C 308.5 447.69 308.49 450.91 308.44 454.14 C 285.88 459.3 264.37 469.04 245.54 482.48 C 228.13 494.99 212.47 511.16 202.52 530.28 C 199.13 537 196.16 544.32 194.98 551.78 C 191.69 551.71 188.43 551.48 185.2 550.77 C 188.03 539.95 192.46 529.76 198.23 520.19 C 209.99 500.77 226.73 484.11 245.35 471.23 C 264.37 458.13 285.71 448.64 308.48 444.47 Z" stroke-linecap="round" />
</g>
		<g transform="matrix(1.3333333333 0 0 1.3333333333 68.2061369462 192.1204082187)" id="FI6Sx0icewVdmhoHgWTUu"  >
<path style="stroke: none; stroke-width: 1; stroke-dasharray: none; stroke-linecap: butt; stroke-dashoffset: 0; stroke-linejoin: miter; stroke-miterlimit: 4; fill: rgb(38,38,38); fill-rule: nonzero; opacity: 1;"  transform=" translate(-253.7098183768, -509.405)" d="M 308.23 460.41 C 308.56 469.28 308.23 478.13 308.4 487 C 308.39 490.24 308.55 493.67 307.87 496.85 C 305.84 498.29 303.22 499.09 300.9 499.94 C 290.45 503.5 280.72 509.34 271.84 515.82 C 256.54 527.18 243.5 541.22 234.98 558.4 C 222.98 556.83 210.92 554.91 199.01 552.77 C 204.39 534.85 214.92 518.32 228.04 505.05 C 244.27 488.13 264.88 475.15 286.68 466.68 C 293.78 464.08 300.69 461.43 308.23 460.41 Z" stroke-linecap="round" />
</g>
		<g transform="matrix(1.3333333333 0 0 1.3333333333 95.5930457772 222.2804082187)" id="8_O7HkKMdqRzotLOkyxxA"  >
<path style="stroke: none; stroke-width: 1; stroke-dasharray: none; stroke-linecap: butt; stroke-dashoffset: 0; stroke-linejoin: miter; stroke-miterlimit: 4; fill: rgb(255,255,255); fill-rule: nonzero; opacity: 1;"  transform=" translate(-274.25, -532.025)" d="M 308.35 503.28 C 308.35 506.59 308.34 509.89 308.33 513.2 C 297.1 518.04 286.8 524.63 277.46 532.51 C 267.7 540.58 258.7 550.06 251.89 560.77 C 247.91 560.71 244.05 560.07 240.15 559.29 C 244.39 552.29 248.96 545.57 254.43 539.46 C 268.71 523.28 287.57 509.59 308.35 503.28 Z" stroke-linecap="round" />
</g>
		<g transform="matrix(1.3333333333 0 0 1.3333333333 107.3938913195 239.3670748853)" id="khQTq7QOje3JU1XxZqHRy"  >
<path style="stroke: none; stroke-width: 1; stroke-dasharray: none; stroke-linecap: butt; stroke-dashoffset: 0; stroke-linejoin: miter; stroke-miterlimit: 4; fill: rgb(247,47,58); fill-rule: nonzero; opacity: 1;"  transform=" translate(-283.1006341567, -544.84)" d="M 308.2 519.78 C 308.31 527.84 308.46 535.93 308.06 543.99 C 307.42 552.63 307.91 561.25 307.55 569.9 C 290.96 567.53 274.43 564.79 257.88 562.16 C 259.6 559.49 261.36 556.87 263.4 554.43 C 273.26 542.57 285.27 532.44 298.45 524.46 C 301.53 522.54 304.84 521.12 308.2 519.78 Z" stroke-linecap="round" />
</g>
</g>
</g>
</svg>