<?xml version="1.0" encoding="UTF-8" standalone="no" ?>
<!DOCTYPE svg PUBLIC "-//W3C//DTD SVG 1.1//EN" "http://www.w3.org/Graphics/SVG/1.1/DTD/svg11.dtd">
<svg width="82" height="82" viewBox="0 0 82 82" fill="none" xmlns="http://www.w3.org/2000/svg">
<path d="M25.625 66.625C25.625 63.3258 26.7475 59.9884 29.489 58.153C32.7768 55.9516 36.7374 54.6666 41 54.6666C45.2626 54.6666 49.2232 55.9516 52.5111 58.153C55.2526 59.9884 56.375 63.3258 56.375 66.625" stroke="#333537" stroke-width="5.125" stroke-linecap="round" stroke-linejoin="round"/>
<path d="M41 46.125C45.7174 46.125 49.5416 42.3008 49.5416 37.5834C49.5416 32.8659 45.7174 29.0417 41 29.0417C36.2825 29.0417 32.4583 32.8659 32.4583 37.5834C32.4583 42.3008 36.2825 46.125 41 46.125Z" stroke="#333537" stroke-width="5.125" stroke-linecap="round" stroke-linejoin="round"/>
<path d="M59.7917 37.5833C63.5845 37.5833 67.1085 38.8711 70.0328 41.0765C72.5116 42.9461 73.4584 46.1082 73.4584 49.213V49.5416" stroke="#333537" stroke-width="5.125" stroke-linecap="round" stroke-linejoin="round"/>
<path d="M59.7916 29.0417C63.5656 29.0417 66.625 25.9823 66.625 22.2083C66.625 18.4344 63.5656 15.375 59.7916 15.375C56.0177 15.375 52.9583 18.4344 52.9583 22.2083C52.9583 25.9823 56.0177 29.0417 59.7916 29.0417Z" stroke="#333537" stroke-width="5.125" stroke-linecap="round" stroke-linejoin="round"/>
<path d="M22.2084 37.5833C18.4154 37.5833 14.8914 38.8711 11.9671 41.0765C9.48831 42.9461 8.54169 46.1082 8.54169 49.213V49.5416" stroke="#333537" stroke-width="5.125" stroke-linecap="round" stroke-linejoin="round"/>
<path d="M22.2083 29.0417C25.9823 29.0417 29.0417 25.9823 29.0417 22.2083C29.0417 18.4344 25.9823 15.375 22.2083 15.375C18.4344 15.375 15.375 18.4344 15.375 22.2083C15.375 25.9823 18.4344 29.0417 22.2083 29.0417Z" stroke="#333537" stroke-width="5.125" stroke-linecap="round" stroke-linejoin="round"/>
</svg>
