<?xml version="1.0" encoding="UTF-8" standalone="no" ?>
<!DOCTYPE svg PUBLIC "-//W3C//DTD SVG 1.1//EN" "http://www.w3.org/Graphics/SVG/1.1/DTD/svg11.dtd">
<svg width="82" height="82" viewBox="0 0 82 82" fill="none" xmlns="http://www.w3.org/2000/svg">
<path d="M20.8054 51.2472C19.5125 48.341 18.7917 45.1078 18.7917 41.7007C18.7917 29.0469 28.7347 18.7889 41 18.7889C53.2655 18.7889 63.2083 29.0469 63.2083 41.7007C63.2083 45.1078 62.4874 48.341 61.1945 51.2472" stroke="#333537" stroke-width="5.125" stroke-linecap="round"/>
<path d="M41 6.83063V10.2473" stroke="#333537" stroke-width="5.125" stroke-linecap="round" stroke-linejoin="round"/>
<path d="M75.1667 40.9971H71.75" stroke="#333537" stroke-width="5.125" stroke-linecap="round" stroke-linejoin="round"/>
<path d="M10.25 40.9971H6.83334" stroke="#333537" stroke-width="5.125" stroke-linecap="round" stroke-linejoin="round"/>
<path d="M65.1572 16.837L62.7413 19.253" stroke="#333537" stroke-width="5.125" stroke-linecap="round" stroke-linejoin="round"/>
<path d="M19.2591 19.2564L16.8431 16.8404" stroke="#333537" stroke-width="5.125" stroke-linecap="round" stroke-linejoin="round"/>
<path d="M49.5998 65.9607C53.052 64.8441 54.4364 61.6844 54.8259 58.5062C54.9421 57.5567 54.161 56.7692 53.2043 56.7692L28.9626 56.7698C27.9731 56.7698 27.1785 57.6097 27.2966 58.592C27.6781 61.764 28.6409 64.0812 32.2993 65.9607M49.5998 65.9607C49.5998 65.9607 32.9015 65.9607 32.2993 65.9607M49.5998 65.9607C49.1846 72.6061 47.2655 75.238 41.0232 75.1642C34.3464 75.2875 32.8104 72.0345 32.2993 65.9607" stroke="#333537" stroke-width="5.125" stroke-linecap="round" stroke-linejoin="round"/>
</svg>
