<?xml version="1.0" encoding="UTF-8" standalone="no" ?>
<!DOCTYPE svg PUBLIC "-//W3C//DTD SVG 1.1//EN" "http://www.w3.org/Graphics/SVG/1.1/DTD/svg11.dtd">
<svg width="250" height="250" viewBox="0 0 250 250" fill="none" xmlns="http://www.w3.org/2000/svg">
<rect width="250" height="250" rx="125" fill="#EAECED"/>
<path d="M67.8855 133.21C66.4715 133.21 65.25 132.881 64.221 132.223C63.192 131.565 62.3975 130.641 61.8375 129.451C61.2845 128.261 61.008 126.871 61.008 125.282C61.008 123.686 61.2845 122.318 61.8375 121.177C62.3905 120.029 63.1815 119.147 64.2105 118.531C65.2395 117.915 66.4645 117.607 67.8855 117.607C69.0265 117.607 70.0415 117.838 70.9305 118.3C71.8265 118.755 72.5475 119.378 73.0935 120.169C73.6465 120.96 73.972 121.852 74.07 122.846H70.857C70.759 122.321 70.5805 121.856 70.3215 121.45C70.0625 121.037 69.723 120.715 69.303 120.484C68.883 120.246 68.379 120.127 67.791 120.127C67.084 120.127 66.475 120.298 65.964 120.641C65.453 120.984 65.061 121.537 64.788 122.3C64.515 123.063 64.3785 124.071 64.3785 125.324C64.3785 127.214 64.6795 128.583 65.2815 129.43C65.8905 130.27 66.727 130.69 67.791 130.69C68.379 130.69 68.883 130.557 69.303 130.291C69.723 130.018 70.0625 129.661 70.3215 129.22C70.5805 128.772 70.759 128.282 70.857 127.75H74.07C73.979 128.471 73.804 129.16 73.545 129.818C73.286 130.469 72.9185 131.05 72.4425 131.561C71.9665 132.072 71.354 132.475 70.605 132.769C69.856 133.063 68.9495 133.21 67.8855 133.21ZM81.1623 133.21C80.0983 133.21 79.1708 132.983 78.3798 132.527C77.5958 132.072 76.9868 131.428 76.5528 130.595C76.1258 129.762 75.9123 128.775 75.9123 127.634C75.9123 126.493 76.1258 125.496 76.5528 124.642C76.9868 123.788 77.5958 123.123 78.3798 122.647C79.1708 122.171 80.1018 121.933 81.1728 121.933C82.2438 121.933 83.1713 122.167 83.9553 122.636C84.7393 123.098 85.3448 123.756 85.7718 124.61C86.1988 125.464 86.4123 126.472 86.4123 127.634C86.4123 128.726 86.2023 129.692 85.7823 130.532C85.3693 131.365 84.7708 132.02 83.9868 132.496C83.2098 132.972 82.2683 133.21 81.1623 133.21ZM81.1728 130.931C81.7118 130.931 82.1458 130.774 82.4748 130.459C82.8038 130.144 83.0418 129.731 83.1888 129.22C83.3358 128.702 83.4093 128.138 83.4093 127.529C83.4093 126.955 83.3428 126.413 83.2098 125.902C83.0768 125.391 82.8458 124.978 82.5168 124.663C82.1878 124.348 81.7398 124.19 81.1728 124.19C80.6338 124.19 80.1963 124.341 79.8603 124.642C79.5313 124.936 79.2898 125.338 79.1358 125.849C78.9818 126.353 78.9048 126.913 78.9048 127.529C78.9048 128.096 78.9748 128.642 79.1148 129.167C79.2548 129.685 79.4893 130.109 79.8183 130.438C80.1473 130.767 80.5988 130.931 81.1728 130.931ZM88.5059 133V122.143H91.5089V123.676C91.8379 123.2 92.2789 122.79 92.8319 122.448C93.3919 122.104 94.0954 121.933 94.9424 121.933C95.3134 121.933 95.6914 121.999 96.0764 122.132C96.4614 122.265 96.8219 122.461 97.1579 122.72C97.5009 122.972 97.7774 123.291 97.9874 123.676C98.3374 123.179 98.7959 122.766 99.3629 122.437C99.9369 122.101 100.574 121.933 101.274 121.933C101.68 121.933 102.089 121.999 102.502 122.132C102.922 122.265 103.307 122.482 103.657 122.783C104.007 123.084 104.287 123.487 104.497 123.991C104.714 124.488 104.823 125.104 104.823 125.839V133H101.757V126.217C101.757 125.783 101.669 125.436 101.494 125.177C101.326 124.911 101.109 124.722 100.843 124.61C100.584 124.491 100.308 124.432 100.014 124.432C99.7409 124.432 99.4644 124.488 99.1844 124.6C98.9044 124.705 98.6664 124.876 98.4704 125.114C98.2744 125.352 98.1764 125.664 98.1764 126.049V133H95.1209V125.944C95.1209 125.615 95.0334 125.338 94.8584 125.114C94.6834 124.89 94.4629 124.722 94.1969 124.61C93.9379 124.491 93.6719 124.432 93.3989 124.432C93.1189 124.432 92.8389 124.491 92.5589 124.61C92.2789 124.722 92.0444 124.901 91.8554 125.146C91.6664 125.384 91.5719 125.685 91.5719 126.049V133H88.5059ZM107.343 133V122.143H110.273V133H107.343ZM107.312 120.589V117.827H110.294V120.589H107.312ZM112.972 133V122.143H115.985V123.676C116.153 123.41 116.37 123.154 116.636 122.909C116.909 122.657 117.252 122.451 117.665 122.29C118.078 122.129 118.568 122.048 119.135 122.048C119.8 122.048 120.42 122.178 120.994 122.437C121.575 122.696 122.044 123.105 122.401 123.665C122.758 124.218 122.936 124.943 122.936 125.839V133H119.87V126.217C119.87 125.629 119.695 125.188 119.345 124.894C118.995 124.6 118.568 124.453 118.064 124.453C117.728 124.453 117.403 124.512 117.088 124.631C116.78 124.75 116.528 124.929 116.332 125.167C116.136 125.405 116.038 125.699 116.038 126.049V133H112.972ZM130.46 136.591C128.528 136.591 127.058 136.346 126.05 135.856C125.049 135.366 124.548 134.722 124.548 133.924C124.548 133.553 124.643 133.242 124.832 132.989C125.028 132.737 125.255 132.538 125.514 132.391C125.78 132.237 126.022 132.121 126.239 132.044C126.463 131.96 126.603 131.904 126.659 131.876C126.547 131.813 126.382 131.722 126.165 131.603C125.955 131.477 125.763 131.309 125.588 131.099C125.413 130.882 125.325 130.602 125.325 130.259C125.325 129.874 125.507 129.517 125.871 129.188C126.242 128.859 126.802 128.632 127.551 128.506C126.837 128.17 126.291 127.715 125.913 127.141C125.542 126.567 125.357 125.979 125.357 125.377C125.357 124.663 125.581 124.05 126.029 123.539C126.477 123.028 127.089 122.64 127.866 122.374C128.643 122.108 129.522 121.975 130.502 121.975C131.244 121.975 131.853 122.055 132.329 122.216C132.812 122.37 133.256 122.573 133.662 122.825C133.823 122.762 134.033 122.682 134.292 122.584C134.558 122.479 134.845 122.367 135.153 122.248C135.468 122.122 135.773 121.999 136.067 121.88C136.361 121.754 136.623 121.642 136.854 121.544L136.833 123.917L134.964 124.222C135.034 124.411 135.09 124.614 135.132 124.831C135.174 125.048 135.195 125.226 135.195 125.366C135.195 125.996 135.01 126.584 134.639 127.13C134.275 127.676 133.729 128.117 133.001 128.453C132.273 128.789 131.366 128.957 130.281 128.957C130.155 128.957 129.98 128.954 129.756 128.947C129.532 128.94 129.35 128.929 129.21 128.915C128.804 128.936 128.521 128.989 128.36 129.073C128.206 129.157 128.129 129.255 128.129 129.367C128.129 129.535 128.286 129.647 128.601 129.703C128.916 129.752 129.392 129.797 130.029 129.839C130.26 129.853 130.575 129.871 130.974 129.892C131.373 129.913 131.811 129.941 132.287 129.976C133.617 130.067 134.607 130.396 135.258 130.963C135.916 131.523 136.245 132.23 136.245 133.084C136.245 134.099 135.762 134.936 134.796 135.594C133.837 136.259 132.392 136.591 130.46 136.591ZM130.953 134.88C131.8 134.88 132.406 134.775 132.77 134.565C133.141 134.355 133.326 134.054 133.326 133.662C133.326 133.333 133.183 133.067 132.896 132.863C132.616 132.653 132.21 132.531 131.678 132.496L129.189 132.328C128.86 132.314 128.573 132.363 128.328 132.475C128.083 132.587 127.891 132.741 127.751 132.937C127.618 133.133 127.551 133.343 127.551 133.567C127.551 134.022 127.828 134.355 128.381 134.565C128.934 134.775 129.791 134.88 130.953 134.88ZM130.376 127.246C130.957 127.246 131.422 127.088 131.772 126.773C132.122 126.451 132.297 126.017 132.297 125.471C132.297 124.904 132.122 124.449 131.772 124.106C131.422 123.763 130.957 123.592 130.376 123.592C129.795 123.592 129.326 123.763 128.969 124.106C128.612 124.449 128.433 124.904 128.433 125.471C128.433 126.01 128.605 126.441 128.948 126.763C129.298 127.085 129.774 127.246 130.376 127.246ZM147.732 133.21C146.976 133.21 146.248 133.088 145.548 132.842C144.855 132.59 144.264 132.198 143.774 131.666C143.291 131.127 142.986 130.431 142.86 129.577H145.506C145.604 129.962 145.772 130.266 146.01 130.49C146.255 130.714 146.532 130.875 146.84 130.973C147.148 131.064 147.442 131.11 147.722 131.11C148.31 131.11 148.782 131.019 149.139 130.837C149.503 130.648 149.685 130.361 149.685 129.976C149.685 129.682 149.577 129.447 149.36 129.272C149.15 129.097 148.8 128.964 148.31 128.873L146.399 128.474C145.44 128.271 144.666 127.928 144.078 127.445C143.497 126.955 143.203 126.262 143.196 125.366C143.189 124.715 143.357 124.131 143.7 123.613C144.05 123.095 144.565 122.685 145.244 122.384C145.93 122.083 146.766 121.933 147.753 121.933C149.09 121.933 150.158 122.227 150.956 122.815C151.761 123.403 152.17 124.232 152.184 125.303H149.622C149.545 124.883 149.335 124.561 148.992 124.337C148.656 124.106 148.229 123.991 147.711 123.991C147.186 123.991 146.752 124.085 146.409 124.274C146.066 124.463 145.895 124.75 145.895 125.135C145.895 125.422 146.035 125.65 146.315 125.818C146.595 125.979 147.029 126.119 147.617 126.238L149.381 126.637C149.99 126.784 150.483 126.987 150.861 127.246C151.246 127.498 151.544 127.774 151.754 128.075C151.964 128.376 152.107 128.681 152.184 128.989C152.268 129.29 152.31 129.563 152.31 129.808C152.31 130.529 152.118 131.145 151.733 131.656C151.348 132.16 150.812 132.545 150.126 132.811C149.44 133.077 148.642 133.21 147.732 133.21ZM159.174 133.21C158.11 133.21 157.182 132.983 156.391 132.527C155.607 132.072 154.998 131.428 154.564 130.595C154.137 129.762 153.924 128.775 153.924 127.634C153.924 126.493 154.137 125.496 154.564 124.642C154.998 123.788 155.607 123.123 156.391 122.647C157.182 122.171 158.113 121.933 159.184 121.933C160.255 121.933 161.183 122.167 161.967 122.636C162.751 123.098 163.356 123.756 163.783 124.61C164.21 125.464 164.424 126.472 164.424 127.634C164.424 128.726 164.214 129.692 163.794 130.532C163.381 131.365 162.782 132.02 161.998 132.496C161.221 132.972 160.28 133.21 159.174 133.21ZM159.184 130.931C159.723 130.931 160.157 130.774 160.486 130.459C160.815 130.144 161.053 129.731 161.2 129.22C161.347 128.702 161.421 128.138 161.421 127.529C161.421 126.955 161.354 126.413 161.221 125.902C161.088 125.391 160.857 124.978 160.528 124.663C160.199 124.348 159.751 124.19 159.184 124.19C158.645 124.19 158.208 124.341 157.872 124.642C157.543 124.936 157.301 125.338 157.147 125.849C156.993 126.353 156.916 126.913 156.916 127.529C156.916 128.096 156.986 128.642 157.126 129.167C157.266 129.685 157.501 130.109 157.83 130.438C158.159 130.767 158.61 130.931 159.184 130.931ZM171.253 133.21C170.189 133.21 169.262 132.983 168.471 132.527C167.687 132.072 167.078 131.428 166.644 130.595C166.217 129.762 166.003 128.775 166.003 127.634C166.003 126.493 166.217 125.496 166.644 124.642C167.078 123.788 167.687 123.123 168.471 122.647C169.262 122.171 170.193 121.933 171.264 121.933C172.335 121.933 173.262 122.167 174.046 122.636C174.83 123.098 175.436 123.756 175.863 124.61C176.29 125.464 176.503 126.472 176.503 127.634C176.503 128.726 176.293 129.692 175.873 130.532C175.46 131.365 174.862 132.02 174.078 132.496C173.301 132.972 172.359 133.21 171.253 133.21ZM171.264 130.931C171.803 130.931 172.237 130.774 172.566 130.459C172.895 130.144 173.133 129.731 173.28 129.22C173.427 128.702 173.5 128.138 173.5 127.529C173.5 126.955 173.434 126.413 173.301 125.902C173.168 125.391 172.937 124.978 172.608 124.663C172.279 124.348 171.831 124.19 171.264 124.19C170.725 124.19 170.287 124.341 169.951 124.642C169.622 124.936 169.381 125.338 169.227 125.849C169.073 126.353 168.996 126.913 168.996 127.529C168.996 128.096 169.066 128.642 169.206 129.167C169.346 129.685 169.58 130.109 169.909 130.438C170.238 130.767 170.69 130.931 171.264 130.931ZM178.597 133V122.143H181.61V123.676C181.778 123.41 181.995 123.154 182.261 122.909C182.534 122.657 182.877 122.451 183.29 122.29C183.703 122.129 184.193 122.048 184.76 122.048C185.425 122.048 186.045 122.178 186.619 122.437C187.2 122.696 187.669 123.105 188.026 123.665C188.383 124.218 188.561 124.943 188.561 125.839V133H185.495V126.217C185.495 125.629 185.32 125.188 184.97 124.894C184.62 124.6 184.193 124.453 183.689 124.453C183.353 124.453 183.028 124.512 182.713 124.631C182.405 124.75 182.153 124.929 181.957 125.167C181.761 125.405 181.663 125.699 181.663 126.049V133H178.597Z" fill="#A9B0B5"/>
</svg>
