<?xml version="1.0" encoding="UTF-8" standalone="no" ?>
<!DOCTYPE svg PUBLIC "-//W3C//DTD SVG 1.1//EN" "http://www.w3.org/Graphics/SVG/1.1/DTD/svg11.dtd">
<svg width="82" height="82" viewBox="0 0 82 82" fill="none" xmlns="http://www.w3.org/2000/svg">
<path d="M66.3424 53.6871C79.8407 36.5713 76.1941 19.5949 66.4972 13.6467C57.3347 8.02654 49.338 10.2914 44.5342 13.899L40.9993 16.5421M66.3424 53.6871C63.1024 57.795 58.875 61.9114 53.5067 65.885C48.2239 69.795 45.5824 71.75 41 71.75C36.4176 71.75 33.7762 69.795 28.4934 65.885C0.757544 45.3559 3.47841 21.0225 15.5029 13.6467C24.6652 8.02654 32.662 10.2914 37.4658 13.899L40.9993 16.5421M66.3424 53.6871L47.4647 32.2697C46.6918 31.393 45.3983 31.2043 44.4071 31.8237L36.9379 36.4921C34.3095 38.1348 30.8981 37.7651 28.6826 35.5972C25.7561 32.7338 26.0514 27.9404 29.3071 25.4578L40.9993 16.5421" stroke="#333537" stroke-width="5.125" stroke-linecap="round" stroke-linejoin="round"/>
</svg>
